<svg width="26" height="25" viewBox="0 0 26 25" fill="none" xmlns="http://www.w3.org/2000/svg">
<g clip-path="url(#clip0_72_137)">
<path d="M20.8352 0.961548H5.0019C3.05745 0.961548 1.4834 2.604 1.4834 4.63292V16.6133C1.4834 18.6421 3.05745 20.2846 5.0019 20.2846H14.1686C14.5389 20.2846 14.8167 20.3813 15.0945 20.6711L18.1501 23.8594C18.5204 24.2459 19.076 23.956 19.076 23.4729V21.6372C19.076 20.8643 19.6315 20.2846 20.3723 20.2846H20.8352C22.7797 20.2846 24.3538 18.6421 24.3538 16.6133V4.63292C24.3538 2.604 22.7797 0.961548 20.8352 0.961548Z" stroke="#A56D2B" stroke-width="2" stroke-miterlimit="10"/>
<path d="M7.31655 13.0385C8.23703 13.0385 8.98323 12.2599 8.98323 11.2994C8.98323 10.3389 8.23703 9.56033 7.31655 9.56033C6.39608 9.56033 5.6499 10.3389 5.6499 11.2994C5.6499 12.2599 6.39608 13.0385 7.31655 13.0385Z" fill="#A56D2B"/>
<path d="M12.965 13.0385C13.8855 13.0385 14.6317 12.2599 14.6317 11.2994C14.6317 10.3389 13.8855 9.56033 12.965 9.56033C12.0445 9.56033 11.2983 10.3389 11.2983 11.2994C11.2983 12.2599 12.0445 13.0385 12.965 13.0385Z" fill="#A56D2B"/>
<path d="M18.5202 13.0385C19.4406 13.0385 20.1868 12.2599 20.1868 11.2994C20.1868 10.3389 19.4406 9.56033 18.5202 9.56033C17.5997 9.56033 16.8535 10.3389 16.8535 11.2994C16.8535 12.2599 17.5997 13.0385 18.5202 13.0385Z" fill="#A56D2B"/>
</g>
<defs>
<clipPath id="clip0_72_137">
<rect width="25" height="25" fill="white" transform="translate(0.464844)"/>
</clipPath>
</defs>
</svg>
