<svg width="50" height="50" viewBox="0 0 50 50" fill="none" xmlns="http://www.w3.org/2000/svg">
<path d="M26.1063 3.58124C25.9611 3.43573 25.7887 3.32028 25.5989 3.24151C25.409 3.16274 25.2055 3.12219 25 3.12219C24.7945 3.12219 24.591 3.16274 24.4011 3.24151C24.2113 3.32028 24.0389 3.43573 23.8938 3.58124L5.14375 22.3312C4.99875 22.4766 4.88382 22.6491 4.80553 22.839C4.72724 23.0288 4.68714 23.2322 4.6875 23.4375V45.3125C4.6875 45.7269 4.85212 46.1243 5.14515 46.4173C5.43817 46.7104 5.8356 46.875 6.25 46.875H20.3125C20.7269 46.875 21.1243 46.7104 21.4174 46.4173C21.7104 46.1243 21.875 45.7269 21.875 45.3125V32.8125H28.125V45.3125C28.125 45.7269 28.2896 46.1243 28.5826 46.4173C28.8757 46.7104 29.2731 46.875 29.6875 46.875H43.75C44.1644 46.875 44.5618 46.7104 44.8549 46.4173C45.1479 46.1243 45.3125 45.7269 45.3125 45.3125V23.4375C45.3129 23.2322 45.2728 23.0288 45.1945 22.839C45.1162 22.6491 45.0013 22.4766 44.8563 22.3312L40.625 18.1031V7.81249C40.625 7.39808 40.4604 7.00066 40.1674 6.70763C39.8743 6.41461 39.4769 6.24999 39.0625 6.24999H35.9375C35.5231 6.24999 35.1257 6.41461 34.8326 6.70763C34.5396 7.00066 34.375 7.39808 34.375 7.81249V11.8531L26.1063 3.58124ZM7.8125 43.75V24.0844L25 6.89686L42.1875 24.0844V43.75H31.25V31.25C31.25 30.8356 31.0854 30.4382 30.7924 30.1451C30.4993 29.8521 30.1019 29.6875 29.6875 29.6875H20.3125C19.8981 29.6875 19.5007 29.8521 19.2077 30.1451C18.9146 30.4382 18.75 30.8356 18.75 31.25V43.75H7.8125Z" fill="#FF8A00"/>
</svg>
