<svg width="12" height="16" viewBox="0 0 12 16" fill="none" xmlns="http://www.w3.org/2000/svg">
<path fill-rule="evenodd" clip-rule="evenodd" d="M1.33869e-07 15.5V2C1.33869e-07 1.46957 0.210714 0.960859 0.585786 0.585786C0.960859 0.210714 1.46957 0 2 0L10 0C10.5304 0 11.0391 0.210714 11.4142 0.585786C11.7893 0.960859 12 1.46957 12 2V15.5C12.0001 15.5868 11.9775 15.6722 11.9346 15.7476C11.8916 15.8231 11.8298 15.8861 11.7551 15.9304C11.6804 15.9747 11.5955 15.9988 11.5087 16.0003C11.4219 16.0018 11.3362 15.9807 11.26 15.939L6 13.069L0.74 15.939C0.66383 15.9807 0.578119 16.0018 0.491305 16.0003C0.404491 15.9988 0.319567 15.9747 0.244892 15.9304C0.170217 15.8861 0.108365 15.8231 0.0654246 15.7476C0.0224845 15.6722 -6.33938e-05 15.5868 1.33869e-07 15.5ZM8.854 5.854C8.94789 5.76011 9.00063 5.63278 9.00063 5.5C9.00063 5.36722 8.94789 5.23989 8.854 5.146C8.76011 5.05211 8.63278 4.99937 8.5 4.99937C8.36722 4.99937 8.23989 5.05211 8.146 5.146L5.5 7.793L4.354 6.646C4.30751 6.59951 4.25232 6.56264 4.19158 6.53748C4.13084 6.51232 4.06574 6.49937 4 6.49937C3.93426 6.49937 3.86916 6.51232 3.80842 6.53748C3.74768 6.56264 3.69249 6.59951 3.646 6.646C3.59951 6.69249 3.56264 6.74768 3.53748 6.80842C3.51232 6.86916 3.49937 6.93426 3.49937 7C3.49937 7.06574 3.51232 7.13084 3.53748 7.19158C3.56264 7.25232 3.59951 7.30751 3.646 7.354L5.146 8.854C5.19245 8.90056 5.24762 8.93751 5.30837 8.96271C5.36911 8.98792 5.43423 9.00089 5.5 9.00089C5.56577 9.00089 5.63089 8.98792 5.69163 8.96271C5.75238 8.93751 5.80755 8.90056 5.854 8.854L8.854 5.854Z" fill="#FF8A00"/>
</svg>
