<svg width="16" height="16" viewBox="0 0 16 16" fill="none" xmlns="http://www.w3.org/2000/svg">
<g clip-path="url(#clip0_147_7)">
<path d="M2 2C1.46957 2 0.960859 2.21071 0.585786 2.58579C0.210714 2.96086 0 3.46957 0 4L0 12.01C0.00264352 12.5387 0.214524 13.0448 0.58931 13.4178C0.964097 13.7907 1.4713 14 2 14H7.5C7.63261 14 7.75979 13.9473 7.85355 13.8536C7.94732 13.7598 8 13.6326 8 13.5C8 13.3674 7.94732 13.2402 7.85355 13.1464C7.75979 13.0527 7.63261 13 7.5 13H2C1.77988 13 1.5659 12.9274 1.39124 12.7934C1.21658 12.6595 1.09101 12.4716 1.034 12.259L6.674 8.788L8 9.583L15 5.383V8.5C15 8.63261 15.0527 8.75979 15.1464 8.85355C15.2402 8.94732 15.3674 9 15.5 9C15.6326 9 15.7598 8.94732 15.8536 8.85355C15.9473 8.75979 16 8.63261 16 8.5V4C16 3.46957 15.7893 2.96086 15.4142 2.58579C15.0391 2.21071 14.5304 2 14 2H2ZM5.708 8.208L1 11.105V5.383L5.708 8.208ZM1 4.217V4C1 3.73478 1.10536 3.48043 1.29289 3.29289C1.48043 3.10536 1.73478 3 2 3H14C14.2652 3 14.5196 3.10536 14.7071 3.29289C14.8946 3.48043 15 3.73478 15 4V4.217L8 8.417L1 4.217Z" fill="#FF8A00"/>
<path d="M14.247 14.269C15.257 14.269 15.834 13.412 15.834 12.244V12.034C15.834 10.43 14.64 9 12.52 9H12.485C10.42 9 9 10.36 9 12.432V12.646C9 14.82 10.438 16 12.358 16H12.402C12.996 16 13.42 15.926 13.639 15.825V15.095C13.394 15.205 12.966 15.275 12.459 15.275H12.415C11.081 15.275 9.844 14.487 9.844 12.62V12.463C9.844 10.806 10.902 9.739 12.484 9.739H12.524C14.059 9.739 15.008 10.789 15.008 12.065V12.183C15.008 13.158 14.684 13.573 14.369 13.573C14.137 13.573 13.959 13.425 13.959 13.153V10.963H13.053V11.532H13.023C12.939 11.234 12.655 10.902 12.069 10.902C11.291 10.902 10.81 11.457 10.81 12.302V12.83C10.81 13.722 11.3 14.264 12.07 14.264C12.541 14.264 12.966 14.037 13.084 13.621H13.127C13.245 14.041 13.744 14.269 14.247 14.269ZM11.794 12.681V12.454C11.794 11.908 12.021 11.663 12.367 11.663C12.664 11.663 12.939 11.855 12.939 12.371V12.738C12.939 13.311 12.686 13.482 12.375 13.482C12.021 13.482 11.794 13.267 11.794 12.682V12.681Z" fill="#FF8A00"/>
</g>
<defs>
<clipPath id="clip0_147_7">
<rect width="16" height="16" fill="white"/>
</clipPath>
</defs>
</svg>
