<svg width="50" height="50" viewBox="0 0 50 50" fill="none" xmlns="http://www.w3.org/2000/svg">
<g clip-path="url(#clip0_27_15)">
<path d="M50 25.1527C50 11.3463 38.8063 0.152588 25 0.152588C11.1937 0.152588 0 11.3463 0 25.1527C0 37.6317 9.14167 47.9734 21.0938 49.8484V32.3797H14.7458V25.1505H21.0938V19.6464C21.0938 13.3818 24.827 9.91925 30.5375 9.91925C33.2708 9.91925 36.1333 10.4088 36.1333 10.4088V16.5609H32.9792C29.873 16.5609 28.9042 18.488 28.9042 20.4652V25.1527H35.8375L34.7292 32.3817H28.9042V49.8505C40.8583 47.9734 50 37.6297 50 25.1527Z" fill="#FF8A00"/>
</g>
<defs>
<clipPath id="clip0_27_15">
<rect width="50" height="50" fill="white"/>
</clipPath>
</defs>
</svg>
