<svg width="24" height="25" viewBox="0 0 24 25" fill="none" xmlns="http://www.w3.org/2000/svg">
<path d="M11.8977 1.5625C7.2682 1.5625 3.48047 5.70312 3.48047 10.8594V13.5938C3.48047 13.6719 3.48047 13.6719 3.48047 13.75C3.48047 13.8281 3.48047 13.9844 3.48047 14.0625C3.48047 16.25 5.02362 17.9688 6.98763 17.9688C7.40849 17.9688 7.68906 17.6562 7.68906 17.1875V10.9375C7.68906 10.4688 7.40849 10.1562 6.98763 10.1562C6.21605 10.1562 5.44448 10.4688 4.88333 10.9375V10.7812C4.88333 6.5625 8.03978 3.125 11.8977 3.125C15.7555 3.125 18.912 6.5625 18.912 10.8594V10.9375C18.3508 10.4688 17.5793 10.1562 16.8077 10.1562C16.3868 10.1562 16.1062 10.4688 16.1062 10.9375V17.1875C16.1062 17.6562 16.3868 17.9688 16.8077 17.9688C17.2987 17.9688 17.7897 17.8125 18.2105 17.6562C17.5091 19.2969 16.2465 20.5469 14.7034 21.25C14.7034 21.1719 14.7034 21.1719 14.7034 21.0938C14.7034 20.625 14.4228 20.3125 14.0019 20.3125H11.8977C11.4768 20.3125 11.1962 20.625 11.1962 21.0938V22.6562C11.1962 23.125 11.4768 23.4375 11.8977 23.4375C16.5271 23.4375 20.3148 19.375 20.3148 14.375V13.5938V11.7188V10.8594C20.3148 5.70312 16.5271 1.5625 11.8977 1.5625Z" fill="#A56D2B"/>
</svg>
