<svg width="25" height="25" viewBox="0 0 25 25" fill="none" xmlns="http://www.w3.org/2000/svg">
<g clip-path="url(#clip0_251_2)">
<path d="M12.5 1.5625C12.5 1.1481 12.6646 0.750671 12.9576 0.457646C13.2507 0.16462 13.6481 0 14.0625 0L23.4375 0C23.8519 0 24.2493 0.16462 24.5424 0.457646C24.8354 0.750671 25 1.1481 25 1.5625V23.4375C25 23.8519 24.8354 24.2493 24.5424 24.5424C24.2493 24.8354 23.8519 25 23.4375 25H14.0625C13.6481 25 13.2507 24.8354 12.9576 24.5424C12.6646 24.2493 12.5 23.8519 12.5 23.4375V1.5625ZM14.0625 22.6562C14.0625 22.8635 14.1448 23.0622 14.2913 23.2087C14.4378 23.3552 14.6365 23.4375 14.8438 23.4375C15.051 23.4375 15.2497 23.3552 15.3962 23.2087C15.5427 23.0622 15.625 22.8635 15.625 22.6562C15.625 22.449 15.5427 22.2503 15.3962 22.1038C15.2497 21.9573 15.051 21.875 14.8438 21.875C14.6365 21.875 14.4378 21.9573 14.2913 22.1038C14.1448 22.2503 14.0625 22.449 14.0625 22.6562ZM17.1875 22.6562C17.1875 22.8635 17.2698 23.0622 17.4163 23.2087C17.5628 23.3552 17.7615 23.4375 17.9688 23.4375C18.176 23.4375 18.3747 23.3552 18.5212 23.2087C18.6677 23.0622 18.75 22.8635 18.75 22.6562C18.75 22.449 18.6677 22.2503 18.5212 22.1038C18.3747 21.9573 18.176 21.875 17.9688 21.875C17.7615 21.875 17.5628 21.9573 17.4163 22.1038C17.2698 22.2503 17.1875 22.449 17.1875 22.6562ZM14.8438 1.5625C14.6365 1.5625 14.4378 1.64481 14.2913 1.79132C14.1448 1.93784 14.0625 2.13655 14.0625 2.34375C14.0625 2.55095 14.1448 2.74966 14.2913 2.89618C14.4378 3.04269 14.6365 3.125 14.8438 3.125H22.6562C22.8635 3.125 23.0622 3.04269 23.2087 2.89618C23.3552 2.74966 23.4375 2.55095 23.4375 2.34375C23.4375 2.13655 23.3552 1.93784 23.2087 1.79132C23.0622 1.64481 22.8635 1.5625 22.6562 1.5625H14.8438ZM14.0625 5.46875C14.0625 5.67595 14.1448 5.87466 14.2913 6.02118C14.4378 6.16769 14.6365 6.25 14.8438 6.25H22.6562C22.8635 6.25 23.0622 6.16769 23.2087 6.02118C23.3552 5.87466 23.4375 5.67595 23.4375 5.46875C23.4375 5.26155 23.3552 5.06284 23.2087 4.91632C23.0622 4.76981 22.8635 4.6875 22.6562 4.6875H14.8438C14.6365 4.6875 14.4378 4.76981 14.2913 4.91632C14.1448 5.06284 14.0625 5.26155 14.0625 5.46875ZM2.34375 3.125C1.72215 3.125 1.12601 3.37193 0.686468 3.81147C0.24693 4.25101 0 4.84715 0 5.46875L0 16.4062C0 17.0279 0.24693 17.624 0.686468 18.0635C1.12601 18.5031 1.72215 18.75 2.34375 18.75H9.375V21.875H8.59375C8.38655 21.875 8.18784 21.9573 8.04132 22.1038C7.89481 22.2503 7.8125 22.449 7.8125 22.6562C7.8125 22.8635 7.89481 23.0622 8.04132 23.2087C8.18784 23.3552 8.38655 23.4375 8.59375 23.4375H10.9375V17.1875H2.34375C2.13655 17.1875 1.93784 17.1052 1.79132 16.9587C1.64481 16.8122 1.5625 16.6135 1.5625 16.4062V5.46875C1.5625 5.26155 1.64481 5.06284 1.79132 4.91632C1.93784 4.76981 2.13655 4.6875 2.34375 4.6875H10.9375V3.125H2.34375Z" fill="#A56D2B"/>
</g>
<defs>
<clipPath id="clip0_251_2">
<rect width="25" height="25" fill="white"/>
</clipPath>
</defs>
</svg>
