<svg width="16" height="16" viewBox="0 0 16 16" fill="none" xmlns="http://www.w3.org/2000/svg">
<path d="M6 6.207V15.25C6 15.4489 6.07902 15.6397 6.21967 15.7803C6.36032 15.921 6.55109 16 6.75 16C6.94891 16 7.13968 15.921 7.28033 15.7803C7.42098 15.6397 7.5 15.4489 7.5 15.25V10.5C7.5 10.3674 7.55268 10.2402 7.64645 10.1464C7.74021 10.0527 7.86739 10 8 10C8.13261 10 8.25979 10.0527 8.35355 10.1464C8.44732 10.2402 8.5 10.3674 8.5 10.5V15.25C8.5 15.4489 8.57902 15.6397 8.71967 15.7803C8.86032 15.921 9.05109 16 9.25 16C9.44891 16 9.63968 15.921 9.78033 15.7803C9.92098 15.6397 10 15.4489 10 15.25V6.75C10 6.6837 10.0263 6.62011 10.0732 6.57322C10.1201 6.52634 10.1837 6.5 10.25 6.5C10.3163 6.5 10.3799 6.52634 10.4268 6.57322C10.4737 6.62011 10.5 6.6837 10.5 6.75V9.25C10.5 9.44891 10.579 9.63968 10.7197 9.78033C10.8603 9.92098 11.0511 10 11.25 10C11.4489 10 11.6397 9.92098 11.7803 9.78033C11.921 9.63968 12 9.44891 12 9.25V6.5C12 5.70435 11.6839 4.94129 11.1213 4.37868C10.5587 3.81607 9.79565 3.5 9 3.5H6.236C6.08079 3.49983 5.92776 3.46354 5.789 3.394L5.459 3.229C5.32131 3.1602 5.20546 3.05446 5.1244 2.9236C5.04334 2.79275 5.00027 2.64193 5 2.488V0.75C5 0.551088 4.92098 0.360322 4.78033 0.21967C4.63968 0.0790176 4.44891 0 4.25 0C4.05109 0 3.86032 0.0790176 3.71967 0.21967C3.57902 0.360322 3.5 0.551088 3.5 0.75V2.833C3.5 3.548 3.904 4.203 4.544 4.522L5.5 5C5.82 5.32 6 5.754 6 6.207Z" fill="#006E8F"/>
<path d="M8 3C8.39782 3 8.77936 2.84196 9.06066 2.56066C9.34196 2.27936 9.5 1.89782 9.5 1.5C9.5 1.10218 9.34196 0.720644 9.06066 0.43934C8.77936 0.158035 8.39782 0 8 0C7.60218 0 7.22064 0.158035 6.93934 0.43934C6.65804 0.720644 6.5 1.10218 6.5 1.5C6.5 1.89782 6.65804 2.27936 6.93934 2.56066C7.22064 2.84196 7.60218 3 8 3Z" fill="#006E8F"/>
</svg>
