<svg width="50" height="50" viewBox="0 0 50 50" fill="none" xmlns="http://www.w3.org/2000/svg">
<path d="M46.1344 0.234008C46.3607 0.37399 46.5475 0.569463 46.6772 0.801893C46.8068 1.03432 46.8749 1.29601 46.875 1.56213V48.4371C46.875 48.8515 46.7104 49.249 46.4174 49.542C46.1243 49.835 45.7269 49.9996 45.3125 49.9996H35.9375C35.5231 49.9996 35.1257 49.835 34.8326 49.542C34.5396 49.249 34.375 48.8515 34.375 48.4371V43.7496H31.25V48.4371C31.25 48.8515 31.0854 49.249 30.7924 49.542C30.4993 49.835 30.1019 49.9996 29.6875 49.9996H1.5625C1.1481 49.9996 0.750671 49.835 0.457646 49.542C0.16462 49.249 0 48.8515 0 48.4371V31.2496C0.000248896 30.9218 0.103588 30.6024 0.29539 30.3366C0.487193 30.0707 0.757744 29.872 1.06875 29.7684L18.75 23.8746V14.0621C18.75 13.7722 18.8307 13.488 18.983 13.2413C19.1353 12.9946 19.3533 12.7951 19.6125 12.6653L44.6125 0.165258C44.851 0.0459008 45.116 -0.0104419 45.3824 0.00159212C45.6488 0.0136261 45.9076 0.0936364 46.1344 0.234008ZM18.75 27.1684L3.125 32.3746V46.8746H18.75V27.1684ZM21.875 46.8746H28.125V42.1871C28.125 41.7727 28.2896 41.3753 28.5826 41.0823C28.8757 40.7892 29.2731 40.6246 29.6875 40.6246H35.9375C36.3519 40.6246 36.7493 40.7892 37.0424 41.0823C37.3354 41.3753 37.5 41.7727 37.5 42.1871V46.8746H43.75V4.09026L21.875 15.0278V46.8746Z" fill="#FF8A00"/>
<path d="M6.25 34.375H9.375V37.5H6.25V34.375ZM12.5 34.375H15.625V37.5H12.5V34.375ZM6.25 40.625H9.375V43.75H6.25V40.625ZM12.5 40.625H15.625V43.75H12.5V40.625ZM25 28.125H28.125V31.25H25V28.125ZM31.25 28.125H34.375V31.25H31.25V28.125ZM25 34.375H28.125V37.5H25V34.375ZM31.25 34.375H34.375V37.5H31.25V34.375ZM37.5 28.125H40.625V31.25H37.5V28.125ZM37.5 34.375H40.625V37.5H37.5V34.375ZM25 21.875H28.125V25H25V21.875ZM31.25 21.875H34.375V25H31.25V21.875ZM37.5 21.875H40.625V25H37.5V21.875ZM25 15.625H28.125V18.75H25V15.625ZM31.25 15.625H34.375V18.75H31.25V15.625ZM37.5 15.625H40.625V18.75H37.5V15.625ZM37.5 9.375H40.625V12.5H37.5V9.375Z" fill="#FF8A00"/>
</svg>
