<svg width="30" height="18" viewBox="0 0 30 18" fill="none" xmlns="http://www.w3.org/2000/svg">
<path fill-rule="evenodd" clip-rule="evenodd" d="M0 9C0 8.73482 0.112875 8.4805 0.313794 8.29299C0.514713 8.10548 0.787218 8.00014 1.07136 8.00014H26.3405L19.5973 1.70902C19.3961 1.52128 19.2831 1.26664 19.2831 1.00112C19.2831 0.735608 19.3961 0.480969 19.5973 0.293222C19.7985 0.105475 20.0713 6.25573e-09 20.3558 0C20.6403 -6.25573e-09 20.9132 0.105475 21.1144 0.293222L29.6852 8.2921C29.785 8.38498 29.8642 8.49531 29.9182 8.61679C29.9722 8.73826 30 8.86848 30 9C30 9.13152 29.9722 9.26174 29.9182 9.38321C29.8642 9.50469 29.785 9.61502 29.6852 9.7079L21.1144 17.7068C20.9132 17.8945 20.6403 18 20.3558 18C20.0713 18 19.7985 17.8945 19.5973 17.7068C19.3961 17.519 19.2831 17.2644 19.2831 16.9989C19.2831 16.7334 19.3961 16.4787 19.5973 16.291L26.3405 9.99986H1.07136C0.787218 9.99986 0.514713 9.89452 0.313794 9.70701C0.112875 9.5195 0 9.26518 0 9Z" fill="#FF8A00"/>
</svg>
