<svg width="14" height="10" viewBox="0 0 14 10" fill="none" xmlns="http://www.w3.org/2000/svg">
<path fill-rule="evenodd" clip-rule="evenodd" d="M0 5.00014C0 4.86753 0.0526784 4.74036 0.146447 4.64659C0.240215 4.55282 0.367392 4.50014 0.5 4.50014H12.293L9.146 1.35414C9.05211 1.26026 8.99937 1.13292 8.99937 1.00014C8.99937 0.867368 9.05211 0.74003 9.146 0.646143C9.23989 0.552257 9.36722 0.499512 9.5 0.499512C9.63278 0.499512 9.76011 0.552257 9.854 0.646143L13.854 4.64614C13.9006 4.69259 13.9375 4.74776 13.9627 4.80851C13.9879 4.86925 14.0009 4.93438 14.0009 5.00014C14.0009 5.06591 13.9879 5.13103 13.9627 5.19178C13.9375 5.25252 13.9006 5.3077 13.854 5.35414L9.854 9.35414C9.76011 9.44803 9.63278 9.50077 9.5 9.50077C9.36722 9.50077 9.23989 9.44803 9.146 9.35414C9.05211 9.26026 8.99937 9.13292 8.99937 9.00014C8.99937 8.86737 9.05211 8.74003 9.146 8.64614L12.293 5.50014H0.5C0.367392 5.50014 0.240215 5.44747 0.146447 5.3537C0.0526784 5.25993 0 5.13275 0 5.00014Z" fill="#FF8A00"/>
</svg>
