<svg width="28" height="18" viewBox="0 0 28 18" fill="none" xmlns="http://www.w3.org/2000/svg">
<path fill-rule="evenodd" clip-rule="evenodd" d="M0.875 8.99998C0.875 8.73476 0.973772 8.48041 1.14959 8.29288C1.3254 8.10534 1.56386 7.99998 1.8125 7.99998H23.9244L18.0238 1.70798C17.8477 1.52021 17.7488 1.26553 17.7488 0.999981C17.7488 0.73443 17.8477 0.479755 18.0238 0.291981C18.1998 0.104208 18.4385 -0.00128173 18.6875 -0.00128174C18.9365 -0.00128174 19.1752 0.104208 19.3512 0.291981L26.8512 8.29198C26.9386 8.38487 27.0078 8.49522 27.0551 8.61671C27.1023 8.7382 27.1267 8.86845 27.1267 8.99998C27.1267 9.13152 27.1023 9.26176 27.0551 9.38325C27.0078 9.50474 26.9386 9.61509 26.8512 9.70798L19.3512 17.708C19.1752 17.8958 18.9365 18.0012 18.6875 18.0012C18.4385 18.0012 18.1998 17.8958 18.0238 17.708C17.8477 17.5202 17.7488 17.2655 17.7488 17C17.7488 16.7344 17.8477 16.4798 18.0238 16.292L23.9244 9.99998H1.8125C1.56386 9.99998 1.3254 9.89462 1.14959 9.70709C0.973772 9.51955 0.875 9.2652 0.875 8.99998Z" fill="white"/>
</svg>
