<svg width="16" height="16" viewBox="0 0 16 16" fill="none" xmlns="http://www.w3.org/2000/svg">
<path d="M3.65398 1.32781C3.59495 1.25187 3.52043 1.18936 3.43538 1.14443C3.35034 1.0995 3.2567 1.07319 3.1607 1.06723C3.0647 1.06127 2.96853 1.07581 2.87858 1.10987C2.78863 1.14394 2.70695 1.19675 2.63898 1.26481L1.60498 2.29981C1.12198 2.78381 0.943983 3.46881 1.15498 4.06981C2.03171 6.55692 3.45614 8.81521 5.32298 10.6778C7.18557 12.5447 9.44387 13.9691 11.931 14.8458C12.532 15.0568 13.217 14.8788 13.701 14.3958L14.735 13.3618C14.803 13.2938 14.8559 13.2122 14.8899 13.1222C14.924 13.0323 14.9385 12.9361 14.9326 12.8401C14.9266 12.7441 14.9003 12.6505 14.8554 12.5654C14.8104 12.4804 14.7479 12.4058 14.672 12.3468L12.365 10.5528C12.2838 10.49 12.1894 10.4464 12.089 10.4253C11.9885 10.4042 11.8846 10.406 11.785 10.4308L9.59498 10.9778C9.30264 11.0504 8.99651 11.0462 8.70623 10.9658C8.41594 10.8854 8.15132 10.7315 7.93798 10.5188L5.48198 8.06181C5.26916 7.84857 5.115 7.584 5.03441 7.29371C4.95382 7.00342 4.94954 6.69724 5.02198 6.40481L5.56998 4.21481C5.59474 4.11519 5.59663 4.01126 5.5755 3.91082C5.55437 3.81037 5.51078 3.71601 5.44798 3.63481L3.65398 1.32781ZM1.88398 0.510807C2.05898 0.335756 2.26921 0.199937 2.50072 0.112368C2.73223 0.0247988 2.97973 -0.0125165 3.22676 0.00289975C3.4738 0.018316 3.71474 0.0861112 3.93356 0.201783C4.15239 0.317456 4.34411 0.478358 4.49598 0.673807L6.28998 2.97981C6.61898 3.40281 6.73498 3.95381 6.60498 4.47381L6.05798 6.66381C6.0299 6.77725 6.03153 6.89601 6.0627 7.00864C6.09388 7.12127 6.15356 7.22396 6.23598 7.30681L8.69298 9.76381C8.77593 9.84639 8.87879 9.90617 8.99161 9.93736C9.10443 9.96854 9.2234 9.97007 9.33698 9.94181L11.526 9.39481C11.7826 9.33102 12.0504 9.32622 12.3091 9.38078C12.5679 9.43534 12.8109 9.54783 13.02 9.70981L15.326 11.5038C16.155 12.1488 16.231 13.3738 15.489 14.1148L14.455 15.1488C13.715 15.8888 12.609 16.2138 11.578 15.8508C8.93866 14.9234 6.54252 13.4126 4.56798 11.4308C2.58636 9.45656 1.07553 7.06078 0.147983 4.42181C-0.214017 3.39181 0.110983 2.28481 0.850983 1.54481L1.88398 0.510807Z" fill="#FF8A00"/>
</svg>
