<svg width="26" height="25" viewBox="0 0 26 25" fill="none" xmlns="http://www.w3.org/2000/svg">
<path d="M16.0898 17.5781C16.0898 17.3633 15.914 17.1875 15.6992 17.1875V17.9688C15.914 17.9688 16.0898 17.793 16.0898 17.5781Z" fill="#A56D2B"/>
<path d="M24.293 5.07813H23.1211V4.6875C23.1211 4.47266 22.9453 4.29688 22.7305 4.29688H22.4883C21.2461 4.29688 19.9609 4.58203 18.6641 5.15234C18.1992 5.35937 17.5625 5.46875 16.8711 5.46875C16.1797 5.46875 15.5469 5.35547 15.0781 5.14844C13.7813 4.58203 12.4961 4.29688 11.2539 4.29688H11.0117C10.7969 4.29688 10.6211 4.47266 10.6211 4.6875V5.38672C9.94531 4.94531 9.14063 4.6875 8.27734 4.6875C6.30859 4.6875 4.65234 6.01953 4.14453 7.82422C4.08984 7.81641 4.03516 7.8125 3.98047 7.8125C3.33594 7.8125 2.80859 8.33984 2.80859 8.98438C2.80859 9.62891 3.33594 10.1563 3.98047 10.1563C3.98047 10.5859 4.33203 10.9375 4.76172 10.9375H5.15234V11.0781C5.15234 11.8594 5.61719 12.5664 6.33594 12.875L6.71484 13.0391V13.2852H5.93359C3.5625 13.2852 1.63672 15.2109 1.63672 17.582V19.9258H1.24609V20.707H20.7773V19.9258H19.7344L21.1563 14.9531C21.1914 14.8359 21.168 14.707 21.0938 14.6094C21.0195 14.5117 20.9023 14.4531 20.7813 14.4531H13.5664C12.7656 13.6992 11.7305 13.2813 10.625 13.2813H9.84375V13.0352L10.1836 12.8906H24.293C24.5078 12.8906 24.6836 12.7148 24.6836 12.5V5.46875C24.6836 5.25391 24.5078 5.07813 24.293 5.07813ZM3.98047 8.98438V9.375C3.76563 9.375 3.58984 9.19922 3.58984 8.98438C3.58984 8.76953 3.76563 8.59375 3.98047 8.59375C3.98828 8.59375 3.99219 8.59375 4 8.59375C3.98828 8.72266 3.98047 8.85156 3.98047 8.98047V8.98438ZM5.15234 8.98438V10.1563H4.76172V8.98438C4.76172 7.04688 6.33984 5.46875 8.27734 5.46875C10.2148 5.46875 11.793 7.04688 11.793 8.98438V10.2266L11.4023 10.3047V8.98438C11.4023 7.47656 10.1758 6.25 8.66797 6.25H7.88672C6.37891 6.25 5.15234 7.47656 5.15234 8.98438ZM9.83594 7.42969C8.92578 7.46875 8.44141 7.91016 8.01172 8.30469C7.60156 8.68359 7.27734 8.98438 6.58203 8.98438C6.34375 8.98438 6.13672 8.94922 5.94531 8.875C6.00391 7.85156 6.84766 7.03125 7.88672 7.03125H8.66797C9.10938 7.03125 9.51172 7.18359 9.83594 7.42969ZM7.49609 19.9219H6.71484V19.1406H7.10547C7.32031 19.1406 7.49609 19.3164 7.49609 19.5313V19.9219ZM20.2578 15.2344L18.918 19.9219H11.1406L12.4805 15.2344H20.2617H20.2578ZM10.6211 14.0625C11.1914 14.0625 11.7344 14.1992 12.2266 14.4531H12.1836C12.0078 14.4531 11.8555 14.5703 11.8086 14.7383L10.3281 19.9219H8.27734V19.5313C8.27734 18.8867 7.75 18.3594 7.10547 18.3594H4.76172V17.3477L5.42969 16.6797L4.87891 16.1289L4.09766 16.9102C4.02344 16.9844 3.98438 17.082 3.98438 17.1875V18.75C3.98438 18.9648 4.16016 19.1406 4.375 19.1406H5.9375V19.9219H2.41797V17.5781C2.41797 15.6406 3.99609 14.0625 5.93359 14.0625H6.76563C6.9375 14.7344 7.55078 15.2344 8.27734 15.2344C9.00391 15.2344 9.61719 14.7344 9.78906 14.0625H10.6211ZM7.49609 13.6719V13.3711H7.50781C7.75 13.4805 8.01563 13.5352 8.27734 13.5352C8.53906 13.5352 8.80078 13.4844 9.04688 13.3789H9.05859V13.6758C9.05859 14.1055 8.70703 14.457 8.27734 14.457C7.84766 14.457 7.49609 14.1055 7.49609 13.6758V13.6719ZM10.6211 10.4609L8.19922 10.9453L8.35156 11.7109L10.6055 11.2617C10.543 11.6563 10.2852 11.9961 9.91016 12.1563L8.73828 12.6602C8.44531 12.7852 8.10938 12.7852 7.81641 12.6602L6.64453 12.1563C6.21484 11.9727 5.93359 11.5469 5.93359 11.0781V9.6875C6.13672 9.73828 6.35156 9.76563 6.58203 9.76563C7.58203 9.76563 8.09375 9.29688 8.54297 8.87891C8.95313 8.5 9.27734 8.20313 9.96875 8.20313C10.1602 8.20313 10.3242 8.23438 10.4844 8.28125C10.5703 8.5 10.6211 8.73438 10.6211 8.98438V10.4609ZM12.1992 12.1094C12.5938 11.9023 13.2617 11.7188 14.1367 11.7188C15.0117 11.7188 15.6797 11.9023 16.0742 12.1094H12.1992ZM16.4805 11.4336C15.8789 11.1055 15.0039 10.9375 14.1367 10.9375C12.918 10.9375 11.6914 11.2695 11.2188 11.9063C11.3359 11.6602 11.3984 11.3867 11.4023 11.1016L11.9492 10.9922C12.3125 10.918 12.5781 10.5977 12.5781 10.2266V10.1563C13.2227 10.1563 13.75 9.62891 13.75 8.98438C13.75 8.33984 13.2227 7.8125 12.5781 7.8125C12.5234 7.8125 12.4688 7.81641 12.4141 7.82422C12.2227 7.14844 11.875 6.54297 11.4063 6.04297V5.07813C12.4922 5.10156 13.625 5.36328 14.7695 5.86328C15.2383 6.07031 15.8398 6.19531 16.4844 6.23047V11.4297L16.4805 11.4336ZM12.5547 8.59766C12.5547 8.59766 12.5664 8.59766 12.5742 8.59766C12.7891 8.59766 12.9648 8.77344 12.9648 8.98828C12.9648 9.20313 12.7891 9.37891 12.5742 9.37891V8.98828C12.5742 8.85938 12.5664 8.73047 12.5547 8.60156V8.59766ZM17.668 12.1094C18.0625 11.9023 18.7305 11.7188 19.6055 11.7188C20.4805 11.7188 21.1484 11.9023 21.543 12.1094H17.668ZM22.3398 11.7031C21.7773 11.1992 20.6875 10.9375 19.6055 10.9375C18.7383 10.9375 17.8633 11.1055 17.2617 11.4336V6.23438C17.9102 6.19531 18.5078 6.07422 18.9766 5.86719C20.1211 5.36719 21.2539 5.10156 22.3398 5.08203V11.7031ZM23.9023 12.1094H23.1211V5.85938H23.9023V12.1094Z" fill="#A56D2B"/>
<path d="M20.7773 7.03125H19.2148V7.8125H20.7773V7.03125Z" fill="#A56D2B"/>
<path d="M21.5586 8.98438H18.4336V9.76562H21.5586V8.98438Z" fill="#A56D2B"/>
</svg>
