<svg width="51" height="50" viewBox="0 0 51 50" fill="none" xmlns="http://www.w3.org/2000/svg">
<path d="M49.9333 12.8873C49.6452 11.8233 49.077 10.8522 48.2855 10.0712C47.4942 9.29024 46.5074 8.7268 45.4239 8.43735C41.4482 7.38525 25.5 7.38525 25.5 7.38525C25.5 7.38525 9.55187 7.38525 5.57387 8.43735C4.491 8.72732 3.50475 9.29096 2.71379 10.0719C1.92283 10.8528 1.35488 11.8237 1.06675 12.8873C0 16.8123 0 24.9998 0 24.9998C0 24.9998 0 33.1873 1.06675 37.1123C1.35487 38.1764 1.92307 39.1475 2.71446 39.9284C3.50584 40.7094 4.49262 41.2728 5.57601 41.5623C9.55187 42.6144 25.5 42.6144 25.5 42.6144C25.5 42.6144 41.4482 42.6144 45.4262 41.5623C46.5096 41.2731 47.4965 40.7097 48.2879 39.9288C49.0794 39.1477 49.6474 38.1764 49.9354 37.1123C51 33.1873 51 24.9998 51 24.9998C51 24.9998 51 16.8123 49.9333 12.8873ZM20.2832 32.4331V17.5666L33.6133 24.9998L20.2832 32.4331Z" fill="#FF8A00"/>
</svg>
